<svg xmlns="http://www.w3.org/2000/svg" viewBox="0 -25 800 420" width="800">
  <defs>
    <linearGradient id="bg" x1="0" y1="0" x2="1" y2="1">
      <stop offset="0%" stop-color="#eef2ff"/>
      <stop offset="100%" stop-color="#f8fafc"/>
    </linearGradient>
    <pattern id="dots" width="40" height="40" patternUnits="userSpaceOnUse">
      <circle cx="20" cy="20" r="1.5" fill="#c7d2fe" opacity="0.35"/>
    </pattern>
    <marker id="ah-b" viewBox="0 0 8 5" refX="7" refY="2.5" markerWidth="5" markerHeight="5" orient="auto">
      <polygon points="0,0 8,2.5 0,5" fill="#4f8ef7"/>
    </marker>
  </defs>

  <rect x="0" y="-25" width="800" height="420" fill="url(#bg)"/>
  <rect x="0" y="-25" width="800" height="420" fill="url(#dots)"/>

  <!-- Zone column separators -->
  <line x1="238" y1="-15" x2="238" y2="340" stroke="#e2e8f0" stroke-width="1" stroke-dasharray="5 5"/>
  <line x1="570" y1="-15" x2="570" y2="340" stroke="#e2e8f0" stroke-width="1" stroke-dasharray="5 5"/>

  <!-- Section labels -->
  <text x="119" y="-9" font-family="system-ui,sans-serif" font-size="8" font-weight="600" letter-spacing="1.5" fill="#94a3b8" text-anchor="middle">CLIENTS</text>
  <text x="404" y="-9" font-family="system-ui,sans-serif" font-size="8" font-weight="600" letter-spacing="1.5" fill="#6366f1" text-anchor="middle">REVERSE PROXY</text>
  <text x="685" y="-9" font-family="system-ui,sans-serif" font-size="8" font-weight="600" letter-spacing="1.5" fill="#94a3b8" text-anchor="middle">BACKENDS</text>

  <!-- Idle keepalive lines (behind everything) -->
  <line x1="203" y1="95"  x2="315" y2="180" stroke="#cbd5e1" stroke-width="1.3" stroke-dasharray="6 4"/>
  <line x1="203" y1="198" x2="315" y2="191" stroke="#cbd5e1" stroke-width="1.3" stroke-dasharray="6 4"/>
  <line x1="497" y1="198" x2="575" y2="293" stroke="#cbd5e1" stroke-width="1.3" stroke-dasharray="6 4"/>

  <!-- Active connection lines with arrowheads -->
  <line x1="203" y1="45"  x2="315" y2="172" stroke="#4f8ef7" stroke-width="1.8" marker-end="url(#ah-b)"/>
  <line x1="203" y1="145" x2="315" y2="186" stroke="#4f8ef7" stroke-width="1.8" marker-end="url(#ah-b)"/>
  <line x1="203" y1="250" x2="315" y2="202" stroke="#4f8ef7" stroke-width="1.8" marker-end="url(#ah-b)"/>
  <line x1="497" y1="178" x2="575" y2="90"  stroke="#4f8ef7" stroke-width="1.8" marker-end="url(#ah-b)"/>
  <line x1="497" y1="192" x2="575" y2="192" stroke="#4f8ef7" stroke-width="1.8" marker-end="url(#ah-b)"/>

  <!-- Client boxes: active = blue border + filled dot; idle = gray -->
  <rect x="18" y="31"  width="185" height="28" rx="5" fill="white"   stroke="#4f8ef7" stroke-width="1.8"/>
  <circle cx="33" cy="45"  r="5" fill="#4f8ef7"/>
  <text x="111" y="50" font-family="system-ui,sans-serif" font-size="10" font-weight="500" fill="#1e293b" text-anchor="middle">Client 1</text>

  <rect x="18" y="81"  width="185" height="28" rx="5" fill="#f8fafc" stroke="#e2e8f0" stroke-width="1.3"/>
  <circle cx="33" cy="95"  r="5" fill="#e2e8f0"/>
  <text x="111" y="100" font-family="system-ui,sans-serif" font-size="10" fill="#94a3b8" text-anchor="middle">Client 2</text>

  <rect x="18" y="131" width="185" height="28" rx="5" fill="white"   stroke="#4f8ef7" stroke-width="1.8"/>
  <circle cx="33" cy="145" r="5" fill="#4f8ef7"/>
  <text x="111" y="150" font-family="system-ui,sans-serif" font-size="10" font-weight="500" fill="#1e293b" text-anchor="middle">Client 3</text>

  <rect x="18" y="184" width="185" height="28" rx="5" fill="#f8fafc" stroke="#e2e8f0" stroke-width="1.3"/>
  <circle cx="33" cy="198" r="5" fill="#e2e8f0"/>
  <text x="111" y="203" font-family="system-ui,sans-serif" font-size="10" fill="#94a3b8" text-anchor="middle">Client 4</text>

  <rect x="18" y="236" width="185" height="28" rx="5" fill="white"   stroke="#4f8ef7" stroke-width="1.8"/>
  <circle cx="33" cy="250" r="5" fill="#4f8ef7"/>
  <text x="111" y="255" font-family="system-ui,sans-serif" font-size="10" font-weight="500" fill="#1e293b" text-anchor="middle">Client 5</text>

  <text x="111" y="283" font-family="system-ui,sans-serif" font-size="10" fill="#94a3b8" text-anchor="middle">⋯  9,995 more connections</text>

  <!-- Proxy box: wide, prominent dark card -->
  <rect x="316" y="150" width="180" height="80" rx="9" fill="#1e293b"/>
  <!-- Event loop arc icon (top-left inside box) -->
  <path d="M 340 170 A 14 14 0 1 1 354 184" fill="none" stroke="#6366f1" stroke-width="2.5" stroke-linecap="round"/>
  <polygon points="354,177 354,190 344,184" fill="#6366f1"/>
  <!-- Labels -->
  <text x="420" y="174" font-family="system-ui,sans-serif" font-size="12" font-weight="700" fill="white" text-anchor="middle">Reverse Proxy</text>
  <text x="420" y="191" font-family="system-ui,sans-serif" font-size="9" fill="#94a3b8" text-anchor="middle">event loop · non-blocking I/O</text>
  <!-- Connection count badge -->
  <rect x="356" y="203" width="128" height="18" rx="9" fill="#6366f1"/>
  <text x="420" y="216" font-family="system-ui,sans-serif" font-size="9" font-weight="600" fill="white" text-anchor="middle">~10,000 concurrent</text>

  <!-- Backend boxes -->
  <!-- B1 active, moderate load -->
  <rect x="575" y="69" width="205" height="42" rx="6" fill="#eff6ff" stroke="#4f8ef7" stroke-width="1.8"/>
  <text x="677" y="85" font-family="system-ui,sans-serif" font-size="10" font-weight="600" fill="#1e293b" text-anchor="middle">Backend A</text>
  <rect x="588" y="90" width="168" height="5" rx="2" fill="#e2e8f0"/>
  <rect x="588" y="90" width="67"  height="5" rx="2" fill="#4f8ef7" opacity="0.8"/>
  <text x="775" y="97" font-family="system-ui,sans-serif" font-size="8" fill="#4f8ef7" text-anchor="end">3 req</text>

  <!-- B2 active, high load -->
  <rect x="575" y="171" width="205" height="42" rx="6" fill="#fff7ed" stroke="#f97316" stroke-width="1.8"/>
  <text x="677" y="187" font-family="system-ui,sans-serif" font-size="10" font-weight="600" fill="#1e293b" text-anchor="middle">Backend B</text>
  <rect x="588" y="192" width="168" height="5" rx="2" fill="#e2e8f0"/>
  <rect x="588" y="192" width="118" height="5" rx="2" fill="#f97316" opacity="0.8"/>
  <text x="775" y="199" font-family="system-ui,sans-serif" font-size="8" fill="#f97316" text-anchor="end">5 req</text>

  <!-- B3 idle -->
  <rect x="575" y="272" width="205" height="42" rx="6" fill="white" stroke="#e2e8f0" stroke-width="1.5"/>
  <text x="677" y="288" font-family="system-ui,sans-serif" font-size="10" font-weight="600" fill="#94a3b8" text-anchor="middle">Backend C</text>
  <rect x="588" y="293" width="168" height="5" rx="2" fill="#f1f5f9"/>
  <text x="775" y="299" font-family="system-ui,sans-serif" font-size="8" fill="#cbd5e1" text-anchor="end">idle</text>

  <!-- In-flight request dots -->
  <!-- C1→proxy (203,45)→(315,172) at t=0.42: (250, 98.7) -->
  <circle cx="250" cy="99"  r="5.5" fill="#4f8ef7" stroke="white" stroke-width="1.5"/>
  <!-- C3→proxy (203,145)→(315,186) at t=0.62: (272.4, 170.4) -->
  <circle cx="272" cy="170" r="5.5" fill="#4f8ef7" stroke="white" stroke-width="1.5"/>
  <!-- C5→proxy (203,250)→(315,202) at t=0.38: (245.6, 231.8) -->
  <circle cx="246" cy="232" r="5.5" fill="#4f8ef7" stroke="white" stroke-width="1.5"/>
  <!-- proxy→B1 (497,178)→(575,90) at t=0.52: (537.6, 132.2) -->
  <circle cx="538" cy="132" r="5.5" fill="#4f8ef7" stroke="white" stroke-width="1.5"/>
  <!-- proxy→B2 (497,192)→(575,192) at t=0.44: (531.3, 192) -->
  <circle cx="531" cy="192" r="5.5" fill="#4f8ef7" stroke="white" stroke-width="1.5"/>

  <!-- Legend -->
  <line x1="18"  y1="314" x2="48"  y2="314" stroke="#4f8ef7" stroke-width="1.8"/>
  <circle cx="33"  cy="314" r="4.5" fill="#4f8ef7" stroke="white" stroke-width="1.2"/>
  <text x="55"  y="318" font-family="system-ui,sans-serif" font-size="9" fill="#475569">active request</text>
  <line x1="148" y1="314" x2="178" y2="314" stroke="#cbd5e1" stroke-width="1.3" stroke-dasharray="5 3"/>
  <text x="185" y="318" font-family="system-ui,sans-serif" font-size="9" fill="#94a3b8">idle keepalive</text>
  <text x="310" y="318" font-family="system-ui,sans-serif" font-size="9" fill="#94a3b8">load bars = backend utilization</text>

  <!-- Caption -->
  <line x1="40" y1="340" x2="760" y2="340" stroke="#e2e8f0" stroke-width="1"/>
  <text x="400" y="354" font-family="Georgia,serif" font-size="12" font-weight="700" font-style="italic" fill="#1e293b" text-anchor="middle">The proxy manages thousands of connections simultaneously — adding microseconds, not milliseconds.</text>
  <text x="400" y="366" font-family="system-ui,sans-serif" font-size="9" fill="#94a3b8" text-anchor="middle">blue dot = active request in flight · dashed line = idle keepalive held open by the OS</text>
</svg>
