<svg width="800" height="420" viewBox="0 -25 800 420" xmlns="http://www.w3.org/2000/svg" font-family="'Segoe UI',system-ui,sans-serif">
  <defs>
    <style>
      @keyframes dash { to { stroke-dashoffset: -24; } }
      @keyframes pulse { 0%,100% { opacity:1; } 50% { opacity:0.4; } }
      .flow { animation: dash 1.8s linear infinite; }
      .broken { animation: dash 1.8s linear infinite; }
      .blink { animation: pulse 1.2s ease-in-out infinite; }
    </style>
    <linearGradient id="bg" x1="0" y1="0" x2="1" y2="1" gradientUnits="objectBoundingBox">
      <stop offset="0%" stop-color="#eef2ff"/>
      <stop offset="100%" stop-color="#f8fafc"/>
    </linearGradient>
    <linearGradient id="dns-grad" x1="0" y1="0" x2="0" y2="1">
      <stop offset="0%" stop-color="#ff6b6b"/>
      <stop offset="100%" stop-color="#c0392b"/>
    </linearGradient>
    <filter id="glow">
      <feGaussianBlur stdDeviation="3" result="blur"/>
      <feMerge><feMergeNode in="blur"/><feMergeNode in="SourceGraphic"/></feMerge>
    </filter>
    <filter id="shadow">
      <feDropShadow dx="0" dy="2" stdDeviation="4" flood-color="#00000020"/>
    </filter>
  </defs>

  <!-- Background -->
  <rect x="0" y="-25" width="800" height="420" fill="url(#bg)"/>

  <!-- Decorative dot grid -->
  <g fill="#c7d2fe" opacity="0.5">
    <g id="col">
      <circle cy="30"  cx="0" r="1.5"/><circle cy="70"  cx="0" r="1.5"/>
      <circle cy="110" cx="0" r="1.5"/><circle cy="150" cx="0" r="1.5"/>
      <circle cy="190" cx="0" r="1.5"/><circle cy="230" cx="0" r="1.5"/>
      <circle cy="270" cx="0" r="1.5"/><circle cy="310" cx="0" r="1.5"/>
      <circle cy="350" cx="0" r="1.5"/><circle cy="390" cx="0" r="1.5"/>
    </g>
    <use href="#col" x="40"/><use href="#col" x="80"/><use href="#col" x="120"/>
    <use href="#col" x="160"/><use href="#col" x="200"/><use href="#col" x="240"/>
    <use href="#col" x="280"/><use href="#col" x="320"/><use href="#col" x="360"/>
    <use href="#col" x="400"/><use href="#col" x="440"/><use href="#col" x="480"/>
    <use href="#col" x="520"/><use href="#col" x="560"/><use href="#col" x="600"/>
    <use href="#col" x="640"/><use href="#col" x="680"/><use href="#col" x="720"/>
    <use href="#col" x="760"/>
  </g>

  <!-- Connection lines — center is (400,185), radius 128 -->
  <line x1="400" y1="85"  x2="400" y2="155" stroke="#4f8ef7" stroke-width="1.8" stroke-dasharray="6 4" class="flow" opacity="0.7"/>
  <line x1="490" y1="133" x2="422" y2="163" stroke="#4f8ef7" stroke-width="1.8" stroke-dasharray="6 4" class="flow" opacity="0.7"/>
  <line x1="490" y1="237" x2="422" y2="207" stroke="#e74c3c" stroke-width="2"   stroke-dasharray="6 4" class="broken" opacity="0.9"/>
  <line x1="400" y1="283" x2="400" y2="215" stroke="#e74c3c" stroke-width="2"   stroke-dasharray="6 4" class="broken" opacity="0.9"/>
  <line x1="310" y1="237" x2="378" y2="207" stroke="#4f8ef7" stroke-width="1.8" stroke-dasharray="6 4" class="flow" opacity="0.7"/>
  <line x1="310" y1="133" x2="378" y2="163" stroke="#4f8ef7" stroke-width="1.8" stroke-dasharray="6 4" class="flow" opacity="0.7"/>

  <!-- ── DNS Resolver (center: 400,185) ── -->
  <circle cx="400" cy="185" r="42" fill="url(#dns-grad)" filter="url(#shadow)"/>
  <circle cx="400" cy="185" r="42" fill="none" stroke="#ff8a80" stroke-width="2.5" class="blink"/>
  <text x="400" y="181" text-anchor="middle" fill="white" font-size="13" font-weight="700">DNS</text>
  <text x="400" y="197" text-anchor="middle" fill="#ffcdd2" font-size="10">resolver</text>
  <line x1="388" y1="208" x2="412" y2="218" stroke="#ffcdd2" stroke-width="2" stroke-linecap="round"/>
  <line x1="412" y1="208" x2="388" y2="218" stroke="#ffcdd2" stroke-width="2" stroke-linecap="round"/>

  <!-- ── Service nodes ── -->
  <circle cx="400" cy="57"  r="34" fill="white" stroke="#4f8ef7" stroke-width="2" filter="url(#shadow)"/>
  <text x="400" y="53"  text-anchor="middle" fill="#4f8ef7" font-size="9" font-weight="600">API</text>
  <text x="400" y="65"  text-anchor="middle" fill="#4f8ef7" font-size="9" font-weight="600">Gateway</text>

  <circle cx="511" cy="121" r="34" fill="white" stroke="#4f8ef7" stroke-width="2" filter="url(#shadow)"/>
  <text x="511" y="117" text-anchor="middle" fill="#4f8ef7" font-size="9" font-weight="600">Load</text>
  <text x="511" y="129" text-anchor="middle" fill="#4f8ef7" font-size="9" font-weight="600">Balancer</text>

  <circle cx="511" cy="249" r="34" fill="#fff8f8" stroke="#e74c3c" stroke-width="2" filter="url(#shadow)"/>
  <text x="511" y="245" text-anchor="middle" fill="#c0392b" font-size="9" font-weight="600">K8s</text>
  <text x="511" y="257" text-anchor="middle" fill="#c0392b" font-size="9" font-weight="600">Kubelet</text>

  <circle cx="400" cy="313" r="34" fill="#fff8f8" stroke="#e74c3c" stroke-width="2" filter="url(#shadow)"/>
  <text x="400" y="309" text-anchor="middle" fill="#c0392b" font-size="9" font-weight="600">Secrets</text>
  <text x="400" y="321" text-anchor="middle" fill="#c0392b" font-size="9" font-weight="600">Manager</text>

  <circle cx="289" cy="249" r="34" fill="white" stroke="#4f8ef7" stroke-width="2" filter="url(#shadow)"/>
  <text x="289" y="245" text-anchor="middle" fill="#4f8ef7" font-size="9" font-weight="600">Service</text>
  <text x="289" y="257" text-anchor="middle" fill="#4f8ef7" font-size="9" font-weight="600">Mesh</text>

  <circle cx="289" cy="121" r="34" fill="white" stroke="#4f8ef7" stroke-width="2" filter="url(#shadow)"/>
  <text x="289" y="117" text-anchor="middle" fill="#4f8ef7" font-size="9" font-weight="600">Client</text>
  <text x="289" y="129" text-anchor="middle" fill="#4f8ef7" font-size="9" font-weight="600">App</text>

  <!-- "?" speech bubbles -->
  <g class="blink">
    <circle cx="548" cy="222" r="11" fill="white" stroke="#e74c3c" stroke-width="1.5"/>
    <text x="548" y="226" text-anchor="middle" fill="#e74c3c" font-size="12" font-weight="700">?</text>
  </g>
  <g class="blink">
    <circle cx="437" cy="286" r="11" fill="white" stroke="#e74c3c" stroke-width="1.5"/>
    <text x="437" y="290" text-anchor="middle" fill="#e74c3c" font-size="12" font-weight="700">?</text>
  </g>

  <!-- Caption -->
  <line x1="200" y1="358" x2="600" y2="358" stroke="#e2e8f0" stroke-width="1"/>
  <text x="400" y="374" text-anchor="middle" fill="#1e293b" font-size="12" font-weight="700" font-family="Georgia,serif" font-style="italic">"It's always DNS."</text>
  <text x="400" y="389" text-anchor="middle" fill="#94a3b8" font-size="9" font-style="italic">All paths lead through DNS — until DNS leads nowhere.</text>
</svg>
